<svg width="70" height="70" viewBox="0 0 70 70" fill="none" xmlns="http://www.w3.org/2000/svg">
<g clip-path="url(#clip0_1163_1497)">
<path d="M35 63.4375C29.3756 63.4375 23.8775 61.7697 19.201 58.6449C14.5245 55.5202 10.8796 51.0788 8.72719 45.8826C6.57482 40.6863 6.01166 34.9685 7.10893 29.4521C8.2062 23.9358 10.9146 18.8687 14.8917 14.8917C18.8687 10.9146 23.9358 8.2062 29.4521 7.10893C34.9685 6.01166 40.6863 6.57482 45.8826 8.72719C51.0788 10.8796 55.5202 14.5245 58.6449 19.201C61.7697 23.8775 63.4375 29.3756 63.4375 35C63.4375 42.5421 60.4414 49.7753 55.1084 55.1084C49.7753 60.4414 42.5421 63.4375 35 63.4375ZM35 10.9375C30.2409 10.9375 25.5887 12.3488 21.6316 14.9928C17.6745 17.6368 14.5904 21.3948 12.7692 25.7917C10.9479 30.1885 10.4714 35.0267 11.3999 39.6944C12.3283 44.362 14.6201 48.6496 17.9853 52.0148C21.3505 55.38 25.638 57.6717 30.3057 58.6002C34.9733 59.5286 39.8115 59.0521 44.2083 57.2309C48.6052 55.4096 52.3632 52.3255 55.0073 48.3684C57.6513 44.4114 59.0625 39.7591 59.0625 35C59.0625 28.6182 56.5274 22.4978 52.0148 17.9853C47.5022 13.4727 41.3818 10.9375 35 10.9375Z" fill="#F5F5F5"/>
<path d="M35 37.1875C32.8368 37.1875 30.7221 36.546 28.9235 35.3442C27.1248 34.1424 25.7229 32.4342 24.8951 30.4356C24.0672 28.437 23.8506 26.2379 24.2727 24.1162C24.6947 21.9945 25.7364 20.0457 27.266 18.516C28.7957 16.9864 30.7445 15.9447 32.8662 15.5227C34.9879 15.1006 37.187 15.3172 39.1856 16.1451C41.1842 16.9729 42.8924 18.3748 44.0942 20.1735C45.296 21.9721 45.9375 24.0868 45.9375 26.25C45.9375 29.1508 44.7852 31.9328 42.734 33.984C40.6828 36.0352 37.9008 37.1875 35 37.1875ZM35 19.6875C33.7021 19.6875 32.4333 20.0724 31.3541 20.7935C30.2749 21.5146 29.4337 22.5395 28.937 23.7386C28.4403 24.9378 28.3104 26.2573 28.5636 27.5303C28.8168 28.8033 29.4418 29.9726 30.3596 30.8904C31.2774 31.8082 32.4467 32.4332 33.7197 32.6864C34.9927 32.9396 36.3122 32.8097 37.5114 32.313C38.7105 31.8163 39.7354 30.9751 40.4565 29.8959C41.1776 28.8167 41.5625 27.5479 41.5625 26.25C41.5625 24.5095 40.8711 22.8403 39.6404 21.6096C38.4097 20.3789 36.7405 19.6875 35 19.6875Z" fill="#F5F5F5"/>
<path d="M55.8907 52.5001C55.5871 52.5021 55.2863 52.4409 55.0076 52.3204C54.729 52.1999 54.4784 52.0227 54.2719 51.8001C51.9501 49.2674 49.1278 47.2443 45.9837 45.8586C42.8396 44.473 39.4422 43.755 36.0063 43.7501H33.9938C27.5893 43.7362 21.4307 46.2154 16.8219 50.6626C16.3961 51.0139 15.8532 51.1913 15.302 51.1591C14.7509 51.1269 14.2323 50.8875 13.8503 50.4889C13.4684 50.0903 13.2512 49.562 13.2425 49.01C13.2337 48.458 13.434 47.9231 13.8032 47.5126C19.2192 42.2778 26.4615 39.3589 33.9938 39.3751H36.0063C40.0449 39.3842 44.038 40.2284 47.7347 41.8547C51.4315 43.4809 54.7519 45.8541 57.4876 48.8251C57.7766 49.1367 57.9686 49.5258 58.04 49.9448C58.1115 50.3638 58.0593 50.7945 57.8899 51.1844C57.7206 51.5742 57.4413 51.9062 57.0862 52.1399C56.7312 52.3735 56.3157 52.4987 55.8907 52.5001Z" fill="#F5F5F5"/>
</g>
<defs>
<clipPath id="clip0_1163_1497">
<rect width="70" height="70" fill="white"/>
</clipPath>
</defs>
</svg>
