<svg width="60" height="60" viewBox="0 0 60 60" fill="none" xmlns="http://www.w3.org/2000/svg">
<path d="M32.5 52.2749V56.2499C32.5 58.3249 34.175 59.9999 36.25 59.9999H38.75C40.825 59.9999 42.5 58.3249 42.5 56.2499V45.7749C40.4 49.0224 36.71 51.5724 32.5 52.2749Z" fill="white"/>
<path d="M59.75 5.825C56.925 2.175 52.35 0 47.5 0C39.225 0 32.5 6.175 32.5 13.75V22.725C36.7025 23.425 40.395 25.97 42.5 29.225V25C42.5 22.25 44.75 20 47.5 20C48.2 20 48.75 20.55 48.75 21.25C48.75 21.95 48.2 22.5 47.5 22.5C46.125 22.5 45 23.625 45 25V27.3C45.825 27.425 46.65 27.5 47.5 27.5C52.35 27.5 56.925 25.325 59.75 21.675C59.9 21.475 60 21.2 60 20.925V6.575C60 6.3 59.9 6.025 59.75 5.825ZM44.25 8.175C42.575 8.9 41.275 10.175 40.55 11.75C40.35 12.225 39.9 12.5 39.425 12.5C39.25 12.5 39.075 12.475 38.9 12.4C38.275 12.1 38 11.35 38.275 10.725C39.25 8.6 41 6.875 43.25 5.875C43.875 5.6 44.625 5.9 44.9 6.525C45.175 7.15 44.9 7.9 44.25 8.175ZM51.875 15C50.85 15 50 14.15 50 13.125C50 12.1 50.85 11.25 51.875 11.25C52.9 11.25 53.75 12.1 53.75 13.125C53.75 14.15 52.9 15 51.875 15Z" fill="white"/>
<path d="M17.5 45.7749V56.2499C17.5 58.3249 19.175 59.9999 21.25 59.9999H23.75C25.825 59.9999 27.5 58.3249 27.5 56.2499V52.2749C23.29 51.5724 19.6 49.0224 17.5 45.7749Z" fill="white"/>
<path d="M12.5 20C15.25 20 17.5 22.25 17.5 25V29.225C19.605 25.97 23.2975 23.425 27.5 22.725V13.75C27.5 6.175 20.775 0 12.5 0C7.65 0 3.075 2.175 0.25 5.825C0.1 6.025 0 6.3 0 6.575V20.925C0 21.2 0.1 21.475 0.25 21.675C3.075 25.325 7.65 27.5 12.5 27.5C13.35 27.5 14.175 27.425 15 27.3V25C15 23.625 13.875 22.5 12.5 22.5C11.8 22.5 11.25 21.95 11.25 21.25C11.25 20.55 11.8 20 12.5 20ZM15.1 6.525C15.375 5.9 16.125 5.6 16.75 5.875C19 6.875 20.75 8.6 21.725 10.725C22 11.35 21.725 12.1 21.1 12.4C20.925 12.475 20.75 12.5 20.575 12.5C20.1 12.5 19.65 12.225 19.45 11.75C18.725 10.175 17.425 8.9 15.75 8.175C15.1 7.9 14.825 7.15 15.1 6.525ZM8.125 15C7.1 15 6.25 14.15 6.25 13.125C6.25 12.1 7.1 11.25 8.125 11.25C9.15 11.25 10 12.1 10 13.125C10 14.15 9.15 15 8.125 15Z" fill="white"/>
<path d="M30 25C23.1075 25 17.5 30.6075 17.5 37.5C17.5 44.3925 23.1075 50 30 50C36.8925 50 42.5 44.3925 42.5 37.5C42.5 30.6075 36.8925 25 30 25ZM37.2 34.5625L29.7 43.3125C29.4525 43.6 29.1025 43.75 28.75 43.75C28.49 43.75 28.225 43.6675 28 43.5L23 39.75C22.4475 39.335 22.335 38.5525 22.7475 38C23.165 37.4475 23.95 37.3375 24.4975 37.7475L28.56 40.7975L35.2975 32.9375C35.7525 32.4125 36.5425 32.355 37.06 32.8C37.5875 33.25 37.65 34.04 37.2 34.5625Z" fill="white"/>
</svg>
