<svg width="51" height="58" viewBox="0 0 51 58" fill="none" xmlns="http://www.w3.org/2000/svg">
<path d="M36.05 -2.36928e-06C32.6469 0.229685 29.0047 2.25468 26.75 4.9875C24.7766 7.39219 23.1219 10.9219 23.75 14.5875C23.1875 14.4141 22.6766 14.3953 22.0625 14.175C20.3891 13.5797 18.4766 12.9375 16.1 12.9375C11.3797 12.9375 6.54687 15.7453 3.5 20.4375C-0.934379 27.2531 -0.0437546 39.2484 6.6875 49.5C7.87343 51.3 9.25625 53.2641 10.9625 54.825C12.6687 56.3859 14.7312 57.5766 17.15 57.6C19.2172 57.6234 20.6562 56.9344 21.95 56.3625C23.2437 55.7906 24.4484 55.2844 26.7125 55.275C26.7266 55.275 26.7359 55.275 26.75 55.275C29.0047 55.2562 30.1719 55.7531 31.4375 56.325C32.7031 56.8969 34.1281 57.6187 36.2 57.6C38.6656 57.5812 40.7609 56.2313 42.5 54.5625C44.2391 52.8937 45.6687 50.8453 46.85 49.05C48.5422 46.4719 49.2219 45.0656 50.525 42.1875C50.6609 41.8875 50.6656 41.5406 50.5344 41.2359C50.4078 40.9312 50.1594 40.6922 49.85 40.575C45.5844 38.9625 43.1516 35.1891 42.8 31.2C42.4484 27.2109 44.1359 23.1047 48.3875 20.775C48.7016 20.6062 48.9219 20.3109 48.9969 19.9641C49.0672 19.6172 48.9828 19.2516 48.7625 18.975C45.7109 15.1828 41.4172 12.9375 37.2125 12.9375C34.5312 12.9375 32.5625 13.5703 30.95 14.175C30.6828 14.2781 30.4859 14.2687 30.2375 14.3625C31.8734 13.5 33.3172 12.3047 34.4 10.9125C36.3687 8.38594 37.8875 4.79062 37.325 1.0125C37.2312 0.393748 36.6734 -0.0468774 36.05 -2.36928e-06ZM34.775 2.85C34.6953 5.27344 33.8656 7.64531 32.4875 9.4125C31.0437 11.2687 28.6156 12.5531 26.2625 12.9375C26.3047 10.6078 27.2234 8.19375 28.625 6.4875C30.0969 4.70625 32.5344 3.42187 34.775 2.85ZM16.1 15.3375C18.0359 15.3375 19.5875 15.8391 21.2375 16.425C22.8875 17.0109 24.6266 17.7 26.675 17.7C28.6766 17.7 30.2609 17.0062 31.8125 16.425C33.3641 15.8437 34.9109 15.3375 37.2125 15.3375C40.2172 15.3375 43.4656 16.8984 46.025 19.6125C41.9281 22.5047 40.0109 27.0141 40.4 31.3875C40.7891 35.8078 43.4516 40.0031 47.825 42.1875C46.8781 44.25 46.2547 45.6141 44.8625 47.7375C43.7141 49.4859 42.35 51.3984 40.85 52.8375C39.35 54.2766 37.7609 55.1859 36.1625 55.2C34.6203 55.2141 33.7437 54.7547 32.4125 54.15C31.0812 53.5453 29.3609 52.8516 26.7125 52.875C24.0687 52.8891 22.325 53.5547 20.975 54.15C19.625 54.7453 18.7391 55.2141 17.1875 55.2C15.5469 55.1859 14.0234 54.3891 12.575 53.0625C11.1266 51.7359 9.81875 49.9266 8.675 48.1875C2.375 38.5875 1.86875 27.3094 5.4875 21.75C8.14062 17.6672 12.3547 15.3375 16.1 15.3375Z" fill="white"/>
</svg>
