<svg width="45" height="60" viewBox="0 0 45 60" fill="none" xmlns="http://www.w3.org/2000/svg">
<path fill-rule="evenodd" clip-rule="evenodd" d="M35.9746 9.09998C35.974 9.24421 35.9698 9.38763 35.9623 9.53018C39.4664 10.7595 41.9791 14.0967 41.9791 18.0208V21.0192H44.9776V33.0131H41.9791V42.009C41.9791 45.9307 39.4694 49.2665 35.968 50.4974C35.9773 50.6653 35.9821 50.8342 35.9821 51.0045C35.9821 55.9724 31.9548 60 26.9866 60H14.9925C10.0245 60 5.99701 55.9724 5.99701 51.0045C5.99701 50.8342 6.00175 50.6653 6.01105 50.4974C2.5099 49.2665 0 45.9307 0 42.009V18.0208C0 14.1009 2.50729 10.7666 6.00559 9.53408C5.99423 9.34118 5.98892 9.1467 5.98991 8.95075C6.01462 3.98273 10.0621 -0.0246238 15.0301 0.000113917L27.024 0.0598145C31.992 0.0845522 35.9995 4.13197 35.9746 9.09998ZM11.987 9.02526H29.9776C29.9617 7.38982 28.6351 6.06492 26.9941 6.05674L15.0002 5.99704C13.3442 5.98882 11.9951 7.3246 11.9868 8.98058L11.987 9.02526ZM33.598 15.0852L20.9434 15.0223H8.99552C7.33951 15.0223 5.99701 16.3647 5.99701 18.0208V42.009C5.99701 43.6635 7.33723 45.0051 8.99132 45.0075H32.9878C34.6418 45.0051 35.9821 43.6635 35.9821 42.009V18.0208C35.9821 16.5753 34.9593 15.3687 33.598 15.0852ZM11.994 51.0045C11.994 52.6603 13.3365 54.003 14.9925 54.003H26.9866C28.6426 54.003 29.9851 52.6603 29.9851 51.0045H11.994Z" fill="white"/>
</svg>
