<svg width="39" height="55" viewBox="0 0 39 55" fill="none" xmlns="http://www.w3.org/2000/svg">
<path fill-rule="evenodd" clip-rule="evenodd" d="M28.9163 9.99909C29.7912 12.1622 29.8562 18.2683 27.2281 19.9982C26.3516 15.2403 23.7385 3.89298 15.4126 0C15.7859 5.91113 16.6791 13.2588 6.97665 23.3312C6.97665 18.3317 3.60196 14.9986 3.60196 14.9986C3.60196 26.6642 -8.65026 41.5246 12.0395 46.6624C6.78333 37.1466 11.8529 35.1218 14.0427 26.9042C15.3576 28.6341 16.3008 31.6988 15.8625 33.4303C18.9289 29.5373 18.8622 21.8463 18.8622 18.385C25.4316 22.7113 31.2361 35.8501 25.5416 46.6624C45.7898 38.3298 38.1155 19.0816 28.9163 9.99909ZM6.66501 55H29.9962V50.0005H6.66501V55Z" fill="white"/>
</svg>
