<svg width="44" height="50" viewBox="0 0 44 50" fill="none" xmlns="http://www.w3.org/2000/svg">
<path d="M43.685 48.3565L39.8848 12.1677C39.8051 11.4101 39.1665 10.8349 38.4047 10.8349H31.2621V9.20637C31.2621 4.13016 27.1319 0 22.0557 0C16.9791 0 12.849 4.13016 12.849 9.20637V10.8349H5.70634C4.94455 10.8349 4.30597 11.4101 4.22624 12.1677L0.426048 48.3565C0.382179 48.7758 0.518364 49.1942 0.800269 49.5078C1.08256 49.821 1.48462 49.9999 1.90615 49.9999H42.2045C42.6264 49.9999 43.0285 49.821 43.3104 49.5078C43.5931 49.1942 43.7289 48.7758 43.685 48.3565ZM15.8252 9.20637C15.8252 5.77124 18.6202 2.97622 22.0557 2.97622C25.4909 2.97622 28.2859 5.77124 28.2859 9.20637V10.8349H15.8252V9.20637ZM3.55867 47.0237L7.04644 13.8111H12.849V17.0906C12.849 17.9123 13.5154 18.5787 14.3371 18.5787C15.1588 18.5787 15.8252 17.9123 15.8252 17.0906V13.8111H28.2859V17.0906C28.2859 17.9123 28.9523 18.5787 29.774 18.5787C30.5957 18.5787 31.2621 17.9123 31.2621 17.0906V13.8111H37.0646L40.5524 47.0237H3.55867Z" fill="white"/>
</svg>
