<svg width="30" height="30" viewBox="0 0 30 30" fill="none" xmlns="http://www.w3.org/2000/svg">
<path d="M26.1263 6.39182L24.0788 4.34713C23.8674 4.13572 23.5894 4.02979 23.3119 4.02979C23.0344 4.02979 22.7569 4.13525 22.5455 4.34666L20.9077 5.97979L24.4885 9.55447L26.1263 7.92182C26.5496 7.499 26.5496 6.81322 26.1263 6.39182Z" fill="white"/>
<path d="M10.2764 16.5919L13.8576 20.1671L23.7225 10.3205L20.1412 6.74536L10.2764 16.5919Z" fill="white"/>
<path d="M9.5033 17.3569L8.73877 21.6938L13.0846 20.9316L9.5033 17.3569Z" fill="white"/>
<path d="M19.4032 23.6263H5.90037V10.1235H15.4296L17.778 7.77979H5.07209C4.23818 7.77979 3.55615 8.46182 3.55615 9.29572V24.4546C3.55615 25.2885 4.23818 25.9706 5.07209 25.9706H20.231C21.0649 25.9706 21.7469 25.2885 21.7469 24.4546V13.6167L19.4032 15.9562V23.6263Z" fill="white"/>
</svg>
