<svg width="30" height="30" viewBox="0 0 30 30" fill="none" xmlns="http://www.w3.org/2000/svg">
<path d="M9.5 10.5V5.5C9.5 4.125 10.625 3 12 3H24.5C25.163 3 25.7989 3.26339 26.2678 3.73223C26.7366 4.20107 27 4.83696 27 5.5V18C27 18.663 26.7366 19.2989 26.2678 19.7678C25.7989 20.2366 25.163 20.5 24.5 20.5H19.5V25.5C19.5 26.163 19.2366 26.7989 18.7678 27.2678C18.2989 27.7366 17.663 28 17 28H4.5C3.83696 28 3.20107 27.7366 2.73223 27.2678C2.26339 26.7989 2 26.163 2 25.5V13C2 11.625 3.125 10.5 4.5 10.5H9.5ZM12 10.5H17C17.663 10.5 18.2989 10.7634 18.7678 11.2322C19.2366 11.7011 19.5 12.337 19.5 13V18H24.5V5.5H12V10.5ZM4.5 13V25.5H17V13H4.5Z" fill="white"/>
</svg>
