<svg width="22" height="30" viewBox="0 0 22 30" fill="none" xmlns="http://www.w3.org/2000/svg">
<path d="M18.0219 9.13139V25.1168C18.0219 25.8613 17.4088 26.4745 16.6642 26.4745H6.13139C5.38686 26.4745 4.77372 25.8613 4.77372 25.1168V9.13139H18.0219ZM14.5839 10.9051V24.6569H15.3723V10.9051H14.5839ZM11.0146 10.9051V24.6569H11.8029V10.9051H11.0146ZM7.44526 10.9051V24.6569H8.23358V10.9051H7.44526ZM8.32117 5.43066V4.29197C8.32117 3.56934 8.89051 3 9.61314 3H13.2044C13.927 3 14.4963 3.56934 14.4963 4.29197V5.43066H18.4599C19.2044 5.43066 19.8175 6.0438 19.8175 6.78832V7.72993H3V6.76642C3 6.0219 3.61314 5.40876 4.35766 5.40876H8.32117V5.43066ZM9.61314 3.87591C9.39416 3.87591 9.21898 4.0511 9.21898 4.27007V5.40876H13.6204V4.27007C13.6204 4.0511 13.4453 3.87591 13.2263 3.87591H9.61314Z" fill="white"/>
</svg>
