<svg width="100" height="100" viewBox="0 0 100 100" fill="none" xmlns="http://www.w3.org/2000/svg">
<path d="M69.8667 48.1463C69.9984 53.76 70.3015 62.0225 69.6296 64.3549C68.9574 66.6873 66.5855 68.9014 64.5695 69.8104C62.5535 70.7197 35.7101 70.2057 34.2867 69.8104C32.8632 69.415 30.7285 66.3709 30.2542 65.2639C29.78 64.1568 30.0171 37.1158 30.5707 34.8627C31.1242 32.6092 33.0613 31.3045 34.8402 30.5139C36.6191 29.7232 55.7667 30.0396 59.2718 30.1975C62.7773 30.3557 65.8871 32.0951 66.1507 34.7041C66.4144 37.3135 64.5953 38.3674 62.4343 38.183C60.2734 37.9986 58.8304 35.9533 60.0656 34.3932C61.3011 32.833 68.205 32.4506 69.1543 34.467C70.1039 36.4834 70.1421 41.3514 68.8378 42.5346C67.5339 43.7178 58.9945 42.1057 57.6851 42.6096C56.3757 43.1135 62.8691 48.185 58.6289 55.9705C55.8503 60.4498 49.7726 62.5412 44.9402 60.0006C39.639 57.2131 38.8246 50.4311 40.6507 46.0799C40.8777 45.5389 43.0417 40.5115 48.1226 39.8236C51.1066 39.4197 56.8199 40.7131 54.8433 42.492C52.8668 44.2709 36.816 42.0572 32.9418 42.8479" stroke="white" stroke-miterlimit="10" stroke-linecap="round" stroke-linejoin="round"/>
<path d="M38.6632 11.2597C15.9468 18.3672 3.71635 42.8773 11.1968 63.8976C18.5003 84.4207 41.896 94.8281 62.3316 88.2816C83.0488 81.6449 95.889 59.0902 89.6812 38.1332C79.7847 5.43513 46.6167 8.6781 45.341 9.46951" stroke="white" stroke-miterlimit="10" stroke-linecap="round" stroke-linejoin="round"/>
</svg>
