<svg width="50" height="50" viewBox="0 0 50 50" fill="none" xmlns="http://www.w3.org/2000/svg">
<path d="M36.8377 24.3175C36.9035 27.1244 37.0551 31.2556 36.7191 32.4218C36.383 33.588 35.197 34.6951 34.189 35.1496C33.181 35.6042 19.7594 35.3472 19.0476 35.1496C18.3359 34.9519 17.2685 33.4298 17.0314 32.8763C16.7943 32.3228 16.9129 18.8023 17.1896 17.6757C17.4664 16.549 18.4349 15.8966 19.3244 15.5013C20.2138 15.106 29.7877 15.2642 31.5402 15.3431C33.2929 15.4222 34.8478 16.2919 34.9797 17.5964C35.1115 18.9011 34.2019 19.4281 33.1215 19.3359C32.041 19.2437 31.3195 18.221 31.9371 17.441C32.5549 16.6609 36.0068 16.4697 36.4814 17.4779C36.9562 18.4861 36.9754 20.9201 36.3232 21.5117C35.6713 22.1033 31.4015 21.2972 30.7469 21.5492C30.0922 21.8011 33.3388 24.3369 31.2187 28.2296C29.8295 30.4693 26.7906 31.515 24.3744 30.2447C21.7238 28.8509 21.3166 25.4599 22.2297 23.2843C22.3431 23.0138 23.4252 20.5001 25.9656 20.1562C27.4576 19.9542 30.3142 20.6009 29.326 21.4904C28.3377 22.3798 20.3123 21.273 18.3752 21.6683" stroke="white" stroke-miterlimit="10" stroke-linecap="round" stroke-linejoin="round"/>
<path d="M21.2359 5.84911C9.87771 9.40282 3.76247 21.6579 7.50271 32.1681C11.1545 42.4296 22.8523 47.6333 33.0701 44.36C43.4287 41.0417 49.8488 29.7643 46.7449 19.2858C41.7967 2.9368 25.2127 4.55829 24.5748 4.95399" stroke="white" stroke-miterlimit="10" stroke-linecap="round" stroke-linejoin="round"/>
</svg>
