<svg width="63" height="40" viewBox="0 0 63 40" fill="none" xmlns="http://www.w3.org/2000/svg">
<path d="M58.1897 5H4.31034C1.93966 5 0 3.875 0 2.5C0 1.125 1.93966 0 4.31034 0H58.1897C60.5603 0 62.5 1.125 62.5 2.5C62.5 3.875 60.5603 5 58.1897 5Z" fill="#F5F5F5"/>
<path d="M58.1897 40H4.31034C1.93966 40 0 38.875 0 37.5C0 36.125 1.93966 35 4.31034 35H58.1897C60.5603 35 62.5 36.125 62.5 37.5C62.5 38.875 60.5603 40 58.1897 40Z" fill="#F5F5F5"/>
<path d="M58.1897 22.5H4.31034C1.93966 22.5 0 21.375 0 20C0 18.625 1.93966 17.5 4.31034 17.5H58.1897C60.5603 17.5 62.5 18.625 62.5 20C62.5 21.375 60.5603 22.5 58.1897 22.5Z" fill="#F5F5F5"/>
</svg>
