<svg width="50" height="50" viewBox="0 0 50 50" fill="none" xmlns="http://www.w3.org/2000/svg">
<path d="M35.1562 23.8281H26.1719V14.8438C26.1719 14.5329 26.0484 14.2349 25.8286 14.0151C25.6089 13.7953 25.3108 13.6719 25 13.6719C24.6892 13.6719 24.3911 13.7953 24.1714 14.0151C23.9516 14.2349 23.8281 14.5329 23.8281 14.8438V23.8281H14.8438C14.5329 23.8281 14.2349 23.9516 14.0151 24.1714C13.7953 24.3911 13.6719 24.6892 13.6719 25C13.6719 25.3108 13.7953 25.6089 14.0151 25.8286C14.2349 26.0484 14.5329 26.1719 14.8438 26.1719H23.8281V35.1562C23.8281 35.4671 23.9516 35.7651 24.1714 35.9849C24.3911 36.2047 24.6892 36.3281 25 36.3281C25.3108 36.3281 25.6089 36.2047 25.8286 35.9849C26.0484 35.7651 26.1719 35.4671 26.1719 35.1562V26.1719H35.1562C35.4671 26.1719 35.7651 26.0484 35.9849 25.8286C36.2047 25.6089 36.3281 25.3108 36.3281 25C36.3281 24.6892 36.2047 24.3911 35.9849 24.1714C35.7651 23.9516 35.4671 23.8281 35.1562 23.8281Z" fill="white"/>
</svg>
